<svg width="50" height="50" viewBox="0 0 50 50" fill="none" xmlns="http://www.w3.org/2000/svg">
<path d="M50 34.375C50 39.1211 47.3648 42.9688 42.1875 42.9688H7.8125C2.63516 42.9688 0 39.1211 0 34.375V17.1875C0 12.4414 2.63516 8.59375 7.8125 8.59375H42.1875C47.3648 8.59375 50 12.4414 50 17.1875V34.375Z" fill="#EC1C24"/>
<path fill-rule="evenodd" clip-rule="evenodd" d="M26.7034 15.6641C26.7315 15.6477 26.7573 15.6266 26.8323 15.5719C26.6549 15.5633 26.5377 15.5508 26.4213 15.5524C24.3346 15.575 22.687 16.4328 21.5291 18.1766C20.0034 20.4735 20.376 23.3688 22.4213 25.1328C22.7799 25.4422 23.1862 25.6907 23.5698 25.9672L23.6237 25.9063C22.8698 25.2071 22.4627 24.336 22.3526 23.3289C22.2416 22.3297 22.4393 21.3907 23.019 20.5446C23.0471 20.6055 23.0534 20.6696 23.0276 20.7125C22.7155 21.2461 22.5277 21.8432 22.4784 22.4594C22.3862 23.7344 22.751 24.8461 23.676 25.7539C23.7174 25.7938 23.7682 25.8227 23.8229 25.8625C23.8315 25.8313 23.8362 25.8211 23.8331 25.818C23.8017 25.7621 23.7686 25.7071 23.7338 25.6532C23.4437 25.2017 23.338 24.6561 23.4385 24.1289C23.5916 23.2774 24.1081 22.7024 24.8526 22.293C25.1252 22.1446 25.3932 21.9649 25.6081 21.7438C26.362 20.9672 26.7706 19.4196 26.0323 18.2969C25.3784 17.3047 25.6956 16.3071 26.7034 15.6641ZM24.5495 20.2594L24.4963 20.2547L24.0081 20.2664L23.6237 20.8547L23.5612 20.6766L23.5448 20.6649C23.5448 20.6505 23.5435 20.6361 23.5409 20.6219L23.3916 20.1914L22.7135 20.0071L23.2729 19.5782L23.2385 18.8766L23.8174 19.2782L24.4737 19.0297L24.2721 19.7024L24.7127 20.2477L24.544 20.2547L24.5495 20.2594Z" fill="white"/>
<path fill-rule="evenodd" clip-rule="evenodd" d="M35.0594 24.8368C34.1266 22.1649 31.4734 20.5868 28.6813 21.0384C26.5648 21.379 24.9359 22.9563 24.4328 25.1555C24.4016 25.293 24.3805 25.4305 24.3516 25.568C25.3992 23.3665 27.9445 22.8251 29.3148 23.3438C29.2641 23.3548 29.2094 23.3774 29.1617 23.3673C28.5992 23.2548 28.0375 23.2368 27.4766 23.3555C26.1867 23.6274 25.1953 24.311 24.5813 25.5009C24.5383 25.5829 24.5109 25.6712 24.4727 25.7571C24.7625 25.4149 25.0828 25.1345 25.4891 24.9618C26.4023 24.5774 27.5062 24.8063 28.2305 25.6259C29.0586 26.5665 31.3539 26.8235 32.3039 25.5391C32.3719 25.4493 32.4594 25.3712 32.5453 25.2946C33.3266 24.6048 34.257 24.5954 35.0555 25.2688C35.0992 25.3016 35.1414 25.3298 35.2352 25.4001C35.1656 25.1735 35.1188 25.004 35.0594 24.8368ZM30.5008 24.2149L30.1133 24.804L30.0602 24.6524L30.057 24.6579C30.0484 24.6368 30.0453 24.6149 30.0406 24.593L29.8805 24.1407L29.2039 23.9555L29.7617 23.529L29.7273 22.8282L30.3055 23.2274L30.9625 22.9782L30.7609 23.6532L31.2023 24.1985L30.5008 24.2149Z" fill="white"/>
<path fill-rule="evenodd" clip-rule="evenodd" d="M30.477 28.6298C29.5348 27.0345 28.1098 26.2032 26.2738 26.0728C25.8504 26.0438 25.4191 26.0868 24.9902 26.0938L24.9887 26.1587C25.0434 26.172 25.0949 26.1868 25.1504 26.1985C25.2129 26.2103 25.2793 26.2118 25.3402 26.2267C26.8184 26.5806 27.8191 27.4884 28.384 28.8798C28.5293 29.2376 28.5746 29.6368 28.659 30.0196C28.6676 30.0563 28.6191 30.1017 28.6004 30.1446C28.577 30.1063 28.5512 30.072 28.5324 30.0345C28.5223 30.0165 28.5309 29.9907 28.5277 29.9696C28.277 28.3313 27.4137 27.1587 25.8652 26.5329C25.5488 26.4024 25.198 26.3556 24.8613 26.2704L24.8676 26.3134C25.148 26.4931 25.4598 26.6353 25.7035 26.8524C26.4941 27.5595 26.6754 28.7462 26.1324 29.772C25.766 30.4649 25.7355 31.1634 25.9348 31.8931C26.1645 32.7228 26.616 33.3642 27.452 33.6892C27.6348 33.7603 27.8137 33.8681 27.9699 33.9884C28.5324 34.4134 28.809 34.9759 28.691 35.6899C28.6527 35.9196 28.5707 36.1399 28.5043 36.3899C28.577 36.347 28.6348 36.3142 28.6926 36.2759C31.2012 34.6243 32.0043 31.2173 30.477 28.6298ZM28.727 31.6673L28.3152 32.2376L28.1137 31.5649L27.4441 31.3485L28.0215 30.9478L28.0199 30.2454L28.5785 30.6712L29.248 30.4532L29.016 31.1173L29.4293 31.6845L28.727 31.6673Z" fill="white"/>
<path fill-rule="evenodd" clip-rule="evenodd" d="M24.6354 26.9414C24.6253 26.9203 24.6042 26.9047 24.5729 26.8703C25.0183 29.3063 23.3425 31.1516 21.9386 31.6289C21.9219 31.6097 21.9055 31.5899 21.8894 31.5696C21.944 31.5297 21.9972 31.4813 22.0565 31.4508C23.5573 30.6985 24.3886 29.493 24.5128 27.811C24.5393 27.4711 24.4913 27.1296 24.3722 26.8102C24.3464 26.9485 24.3409 27.0844 24.3229 27.2172C24.137 28.5219 22.862 29.3344 21.5847 29.1235C20.7604 28.9875 20.0378 29.1563 19.3644 29.618C18.8456 29.9781 18.4331 30.4281 18.2667 31.0539C18.2058 31.2946 18.194 31.5485 18.1542 31.7953C18.0136 32.6852 17.4315 33.2797 16.5761 33.3953C16.3745 33.4219 16.1675 33.3992 15.9604 33.3992C15.9675 33.4297 15.9659 33.4485 15.9745 33.4563C16.0237 33.4985 16.0698 33.5406 16.1222 33.5781C17.0034 34.2414 17.9815 34.6805 19.0917 34.7649C21.3151 34.9328 23.1222 34.1297 24.3823 32.2922C25.5503 30.5883 25.4815 28.7688 24.6354 26.9414ZM21.1526 32.2641L20.7425 32.8336L20.5409 32.1625L19.8714 31.9469L20.4503 31.5461L20.4448 30.843L21.0065 31.2688L21.6737 31.05L21.4409 31.7149L21.855 32.2813L21.1526 32.2641Z" fill="white"/>
<path fill-rule="evenodd" clip-rule="evenodd" d="M23.7385 26.7579C22.8416 27.2594 21.8877 27.379 20.8948 27.1766C19.9034 26.9751 19.0784 26.4884 18.4448 25.6837C18.4759 25.6804 18.5073 25.6835 18.5373 25.6926C18.5672 25.7017 18.595 25.7168 18.619 25.7368C18.8323 25.9259 19.026 26.1438 19.2596 26.3063C20.594 27.2251 22.0081 27.4063 23.5026 26.7212C23.5877 26.6798 23.6674 26.6235 23.7729 26.5594C23.4448 26.5915 23.151 26.6587 22.8674 26.6376C21.9049 26.5594 21.2502 26.0274 20.8784 25.1563C20.7534 24.8579 20.7018 24.5259 20.6393 24.2048C20.4377 23.1446 18.8924 21.6844 17.3291 22.1134C16.1682 22.4313 15.1745 21.8368 14.9362 20.6587C14.9315 20.6305 14.9034 20.6079 14.8799 20.5712C14.8604 20.6079 14.8487 20.6259 14.8385 20.6446C14.8221 20.6844 14.8096 20.7243 14.794 20.7649C14.2166 22.4305 14.3159 24.0469 15.1948 25.5868C16.6807 28.1899 20.0182 29.4188 22.8416 27.5352C23.1682 27.3173 23.4651 27.0555 23.7752 26.8165L23.7385 26.7579ZM17.8073 25.8454L17.6057 25.1743L16.9362 24.9587L17.5151 24.5579L17.512 23.8548L18.0729 24.2805L18.7401 24.0634L18.5073 24.7266L18.9213 25.2946L18.219 25.2782L17.8073 25.8454Z" fill="white"/>
</svg>
