<svg width="50" height="50" viewBox="0 0 50 50" fill="none" xmlns="http://www.w3.org/2000/svg">
<path d="M0 19.4445H50V30.5556H0V19.4445Z" fill="#006A44"/>
<path d="M44.4444 6.94446H5.55556C4.08213 6.94446 2.66905 7.52977 1.62718 8.57164C0.585316 9.61351 0 11.0266 0 12.5L0 19.4445H50V12.5C50 11.0266 49.4147 9.61351 48.3728 8.57164C47.3309 7.52977 45.9179 6.94446 44.4444 6.94446Z" fill="#FDB913"/>
<path d="M5.55556 43.0555H44.4444C45.9179 43.0555 47.3309 42.4702 48.3728 41.4284C49.4147 40.3865 50 38.9734 50 37.5V30.5555H0V37.5C0 38.9734 0.585316 40.3865 1.62718 41.4284C2.66905 42.4702 4.08213 43.0555 5.55556 43.0555Z" fill="#C1272D"/>
</svg>
