<svg width="50" height="50" viewBox="0 0 50 50" fill="none" xmlns="http://www.w3.org/2000/svg">
<g clip-path="url(#clip0_945_446)">
<path d="M29.6876 42.1875H42.1876C43.7321 42.1875 45.0446 41.8391 46.1345 41.232L29.6876 31.4211V42.1875ZM49.7345 36.1016C49.9126 35.307 50.0032 34.4656 50.0032 33.593V29.6867H38.9798L49.7314 36.1016M0.273543 13.8742C0.0881633 14.7054 -0.0035541 15.5547 0.000105315 16.4062V20.3125H11.0657L0.273543 13.8742ZM20.3126 7.8125H7.8126C6.27901 7.8125 4.97511 8.15625 3.88995 8.75469L20.3126 18.5516V7.8125ZM3.93995 41.2703C5.01495 41.8516 6.30167 42.1875 7.8126 42.1875H20.3126V31.5031L3.93995 41.2703ZM0.000105315 29.6875V33.5938C0.000105315 34.493 0.0954178 35.3594 0.283699 36.1742L11.1579 29.6875H0.000105315ZM46.1837 8.79297C45.0853 8.16953 43.7548 7.8125 42.1876 7.8125H29.6876V18.6336L46.1837 8.79297ZM50.0001 20.3125V16.4062C50.0001 15.5516 49.9118 14.7273 49.7407 13.9477L39.072 20.3125H50.0001Z" fill="#2E3192"/>
<path d="M39.0719 20.3125L49.7406 13.9477C49.2516 11.7102 48.0609 9.85781 46.1836 8.79297L29.6875 18.6336V7.8125H28.125V21.875H50V20.3125H39.0719ZM0 28.125V29.6875H11.1578L0.283594 36.1742C0.8 38.4047 2.02656 40.2359 3.93984 41.2703L20.3125 31.5031V42.1875H21.875V28.125H0ZM50 28.125H28.125V42.1875H29.6875V31.4211L46.1344 41.2328C48.0258 40.1797 49.2312 38.3375 49.7312 36.1031L38.9797 29.6875H50V28.125ZM20.3125 7.8125V18.5516L3.88984 8.75469C1.99141 9.80156 0.778125 11.6406 0.272656 13.8742L11.0656 20.3125H0V21.875H21.875V7.8125H20.3125Z" fill="#E6E7E8"/>
<path d="M28.125 21.875V7.8125H21.875V21.875H0V28.125H21.875V42.1875H28.125V28.125H50V21.875H28.125Z" fill="#BE1E2D"/>
<path d="M17.1391 20.3125L1.475 10.9617C1.13828 11.4617 0.867969 12.0117 0.644531 12.5976L13.5719 20.3125H17.1367M49.2891 37.5703L36.1539 29.6875H32.5164L48.3859 39.2335C48.753 38.7187 49.0563 38.1613 49.2891 37.5734M47.4367 9.68042L29.6633 20.3125L33.2719 20.3148L48.6086 11.1328C48.2664 10.5101 47.9055 10.1085 47.4367 9.68042ZM1.41641 38.9648C1.76787 39.5 2.19079 39.9847 2.67344 40.4054L20.3617 29.6875H16.7969L1.41641 38.9648Z" fill="#BE1E2D"/>
</g>
<defs>
<clipPath id="clip0_945_446">
<rect width="50" height="50" fill="white"/>
</clipPath>
</defs>
</svg>
