<svg width="12" height="8" viewBox="0 0 12 8" fill="none" xmlns="http://www.w3.org/2000/svg">
<path fill-rule="evenodd" clip-rule="evenodd" d="M6.88325 7.38332C6.64888 7.61741 6.33117 7.74889 5.99992 7.74889C5.66867 7.74889 5.35096 7.61741 5.11658 7.38332L0.401584 2.66999C0.167199 2.43549 0.0355664 2.11749 0.0356446 1.78594C0.0357227 1.4544 0.167505 1.13646 0.402 0.902072C0.636496 0.667687 0.954496 0.536055 1.28605 0.536133C1.61759 0.536211 1.93553 0.667993 2.16992 0.902489L5.99992 4.73249L9.82992 0.902489C10.0656 0.674678 10.3813 0.548534 10.709 0.551226C11.0368 0.553919 11.3503 0.685232 11.5822 0.916884C11.8141 1.14854 11.9457 1.46199 11.9487 1.78974C11.9517 2.11748 11.8258 2.4333 11.5983 2.66916L6.88408 7.38416L6.88325 7.38332Z" fill="#05D69E"/>
</svg>
