<svg width="284" height="153" viewBox="0 0 284 153" fill="none" xmlns="http://www.w3.org/2000/svg">
<path fill-rule="evenodd" clip-rule="evenodd" d="M0.298865 29.5664C1.95667 20.0662 10.2398 13.1569 19.8833 13.2304L62.8768 13.5577C81.8224 13.702 100.734 11.9161 119.317 8.22756L160.77 0C156.626 23.7466 138.304 42.4989 114.659 47.1918L108.415 48.4311C92.5085 51.5883 76.3215 53.117 60.1048 52.9935L19.5829 52.685C7.3926 52.5922 -1.79676 41.5755 0.298865 29.5664ZM0.295527 81.6986C0.295527 70.6529 9.24983 61.6986 20.2955 61.6986H80.2955C91.3412 61.6986 100.296 70.6529 100.296 81.6986C100.296 92.7443 91.3412 101.699 80.2955 101.699H20.2955C9.24983 101.699 0.295527 92.7443 0.295527 81.6986ZM20.2955 111.699C9.24983 111.699 0.295527 120.653 0.295527 131.699C0.295527 142.744 9.24983 151.699 20.2955 151.699C31.3412 151.699 40.2955 142.744 40.2955 131.699C40.2955 120.653 31.3412 111.699 20.2955 111.699Z" fill="url(#paint0_linear_250_20)"/>
<path fill-rule="evenodd" clip-rule="evenodd" d="M175.134 151.204C164.779 147.435 159.44 135.985 163.209 125.63L203.173 15.8292C204.556 9.32185 209.16 3.65171 215.872 1.20872C218.16 0.376203 220.5 -0.0119103 222.8 0.000278183C225.099 -0.0119103 227.44 0.376203 229.728 1.20872C236.44 3.65171 241.044 9.32184 242.427 15.8292L282.391 125.63C286.16 135.985 280.821 147.435 270.466 151.204C260.111 154.972 248.661 149.633 244.892 139.278L222.8 78.5799L200.707 139.278C196.939 149.633 185.489 154.972 175.134 151.204ZM212.087 120.499C212.087 114.989 216.554 110.522 222.064 110.522C227.573 110.522 232.04 114.989 232.04 120.499C232.04 126.008 227.573 130.475 222.064 130.475C216.554 130.475 212.087 126.008 212.087 120.499Z" fill="url(#paint1_linear_250_20)"/>
<defs>
<linearGradient id="paint0_linear_250_20" x1="80.3852" y1="0" x2="80.3852" y2="171.699" gradientUnits="userSpaceOnUse">
<stop offset="0.07" stop-color="#05D66D"/>
<stop offset="1" stop-color="#0B0B0B"/>
</linearGradient>
<linearGradient id="paint1_linear_250_20" x1="222.8" y1="0" x2="222.8" y2="152.412" gradientUnits="userSpaceOnUse">
<stop stop-color="#05D66D"/>
<stop offset="1" stop-color="#0B0B0B"/>
</linearGradient>
</defs>
</svg>
